<svg id="Layer_2" data-name="Layer 2" xmlns="http://www.w3.org/2000/svg" xmlns:xlink="http://www.w3.org/1999/xlink" viewBox="0 0 2417.04 2740.76"><defs><style>.cls-1{fill:url(#linear-gradient);}.cls-2{fill:#fff;}.cls-3{fill:url(#linear-gradient-2);}.cls-4{fill:url(#linear-gradient-3);}.cls-5{fill:url(#linear-gradient-4);}.cls-6{fill:url(#linear-gradient-5);}.cls-7{fill:url(#linear-gradient-6);}.cls-8{fill:url(#linear-gradient-7);}</style><linearGradient id="linear-gradient" x1="2000" y1="902.48" x2="2000" y2="3319.52" gradientUnits="userSpaceOnUse"><stop offset="0" stop-color="#24e3d3"/><stop offset="0.09" stop-color="#2dd3d6"/><stop offset="0.33" stop-color="#43aede"/><stop offset="0.55" stop-color="#5294e3"/><stop offset="0.75" stop-color="#5c84e7"/><stop offset="0.9" stop-color="#5f7ee8"/></linearGradient><linearGradient id="linear-gradient-2" x1="1670.42" y1="3152.21" x2="1670.42" y2="3318.49" gradientUnits="userSpaceOnUse"><stop offset="0" stop-color="#24e3d3"/><stop offset="0.94" stop-color="#5f7ee8"/></linearGradient><linearGradient id="linear-gradient-3" x1="1809.01" y1="3220.38" x2="1809.01" y2="3299.39" xlink:href="#linear-gradient-2"/><linearGradient id="linear-gradient-4" x1="1920.13" y1="3183.68" x2="1920.13" y2="3317.07" xlink:href="#linear-gradient-2"/><linearGradient id="linear-gradient-5" x1="2076.61" y1="3202.96" x2="2076.61" y2="3336.16" xlink:href="#linear-gradient-2"/><linearGradient id="linear-gradient-6" x1="2207.11" y1="3220.95" x2="2207.11" y2="3295.93" xlink:href="#linear-gradient-2"/><linearGradient id="linear-gradient-7" x1="2346.97" y1="3195.11" x2="2346.97" y2="3326.6" xlink:href="#linear-gradient-2"/></defs><path class="cls-1" d="M3208.52,1824.64c0,173.8-36.69,339-102.74,488.37a1203,1203,0,0,1-65.49,127.06q-21.55,36.39-45.57,71.09-30.67,44.37-65.14,85.79c-221.68,266.53-555.81,436.21-929.58,436.21-245.41,0-473.74-73.15-664.36-198.84a1213.32,1213.32,0,0,1-404.07-444.4c-89.44-168.68-140.09-361.06-140.09-565.28,0-667.45,541.07-1208.52,1208.52-1208.52S3208.52,1157.19,3208.52,1824.64Z" transform="translate(-791.48 -616.12)"/><path class="cls-2" d="M3105.78,2313a1203,1203,0,0,1-65.49,127.06,1044.51,1044.51,0,0,0-198.55-23c-273.88-5.19-484.63,99.49-592.64,164.62a1496.07,1496.07,0,0,1-913.46,252.6,1213.31,1213.31,0,0,1-202.35-167.47,900.84,900.84,0,0,0,146.36,16.06c47.28,1.29,215.09,2.07,444.23-98.31,170.87-74.85,160.4-111.58,342.28-207.55,96.86-51.11,263.31-138.94,466.07-163.86C2629.88,2201.19,2842.5,2190.69,3105.78,2313Z" transform="translate(-791.48 -616.12)"/><path class="cls-2" d="M1884.1,2366.13c-90.07,81.5-293.79,239.68-560.75,233-101.29-2.52-212.91-28.8-300.7-63.53a1207.55,1207.55,0,0,1-91.08-145.71c86.51,39.87,212.88,84.48,369.93,96.37C1577.82,2507.2,1789.69,2414.76,1884.1,2366.13Z" transform="translate(-791.48 -616.12)"/><path class="cls-2" d="M2994.72,2511.16q-30.67,44.37-65.14,85.79a877.14,877.14,0,0,0-539.35,104.17,732.63,732.63,0,0,1,604.49-190Z" transform="translate(-791.48 -616.12)"/><path class="cls-3" d="M1753.56,3248.25q0,51.4-28,78.6T1645.07,3354h-57.79v-207.6h63.9q48.42,0,75.4,26.62T1753.56,3248.25Zm-27.55.85q0-39.61-19.52-60t-59-20.38h-34.08V3331.6h28.26Q1726,3331.6,1726,3249.1Z" transform="translate(-791.48 -616.12)"/><path class="cls-4" d="M1794,3156q0-8.52,4.33-12.35a16.49,16.49,0,0,1,21.16,0q4.47,3.83,4.47,12.35t-4.47,12.35a16.05,16.05,0,0,1-21.16,0Q1794,3164.34,1794,3156ZM1821.58,3354H1796V3198.12h25.56Z" transform="translate(-791.48 -616.12)"/><path class="cls-5" d="M1905.36,3354l-59.07-155.92h27.4l33.09,91.88q9.79,27.69,12.49,41.32h1.14c.28-1.23.64-2.63,1.06-4.19s.93-3.27,1.5-5.11,4.06-12.52,10.5-32l33.23-91.88H1994L1934.75,3354Z" transform="translate(-791.48 -616.12)"/><path class="cls-6" d="M2085,3356.88q-35.09,0-55-21.23t-20-58.43q0-37.48,18.6-59.71t50.27-22.23q29.4,0,46.86,19t17.47,51.33v15.48H2036.42q.72,26.55,13.49,40.33t36.21,13.77a122.88,122.88,0,0,0,23.72-2.2q11.2-2.19,26.27-8.59v22.44a124.21,124.21,0,0,1-24.29,7.81A138.84,138.84,0,0,1,2085,3356.88Zm-6.39-140.72q-18.33,0-29,11.78T2037,3260.75h79.38q-.28-21.87-10.08-33.23T2078.6,3216.16Z" transform="translate(-791.48 -616.12)"/><path class="cls-7" d="M2244.59,3354h-75V3339l24.42-5.54V3167.31l-24.42-5.82v-15h75v15l-24.42,5.82v166.14l24.42,5.54Z" transform="translate(-791.48 -616.12)"/><path class="cls-8" d="M2387.44,3354v-99.68q0-19-8.45-28.33t-26.48-9.3q-24,0-34.86,13.27t-10.86,43.24V3354h-25.56V3198.12h20.59l3.83,21.3h1.42a48.25,48.25,0,0,1,20.31-17.82,65.36,65.36,0,0,1,28.82-6.32q28.68,0,42.6,13.92t13.92,43.31V3354Z" transform="translate(-791.48 -616.12)"/><path class="cls-2" d="M1821,1167.76l9.38-40q102.16-8.48,241-41.46-40.22,104.14-71.06,236.45l-61.7,261.77q-66.4,283.4-149.59,427.86,80.58,16.32,142.42,16.3,163.92,0,285.72-69t193.47-201.22q71.68-132.29,71.68-291.77,0-209.2-121.92-336.32t-318.84-127.13q-166,0-313.21,78.86t-233,208.86q-85.82,130-85.81,253,0,120.16,104.86,176.47,30,16.82,38.87,28.9t8.89,29.82q0,22.36-17.36,39.61T1504.85,1836q-49.75,0-96.68-65.66-63.87-91.94-63.86-188.58,0-161.35,96.16-311.91t267.8-239.7q171.65-89.12,381.77-89.14,258.91,0,412.28,138.24t153.37,347.23q0,194-106.92,356.62t-258.36,231.48Q2139,2083.52,1988,2083.5q-48.75,0-168.8-9.05-101.28-7.23-192.24-7.25-42.23,0-128.48,3l21.54-45.93q86.26-4.67,107.36-15t36.11-34.66q27.16-43.06,74.07-187.35l64.73-245,75-306q5.63-22.5,5.63-38.48,0-15-9.38-23.92t-26.28-8.93Q1840.73,1164.94,1821,1167.76Z" transform="translate(-791.48 -616.12)"/></svg>