<svg id="Layer_2" data-name="Layer 2" xmlns="http://www.w3.org/2000/svg" xmlns:xlink="http://www.w3.org/1999/xlink" viewBox="0 0 2417.04 2417.04"><defs><style>.cls-1{fill:url(#linear-gradient);}.cls-2{fill:#fff;}</style><linearGradient id="linear-gradient" x1="2000" y1="902.48" x2="2000" y2="3319.52" gradientUnits="userSpaceOnUse"><stop offset="0" stop-color="#24e3d3"/><stop offset="0.09" stop-color="#2dd3d6"/><stop offset="0.33" stop-color="#43aede"/><stop offset="0.55" stop-color="#5294e3"/><stop offset="0.75" stop-color="#5c84e7"/><stop offset="0.9" stop-color="#5f7ee8"/></linearGradient></defs><path class="cls-1" d="M3208.52,1824.64c0,173.8-36.69,339-102.74,488.37a1203,1203,0,0,1-65.49,127.06q-21.55,36.39-45.57,71.09-30.67,44.37-65.14,85.79c-221.68,266.53-555.81,436.21-929.58,436.21-245.41,0-473.74-73.15-664.36-198.84a1213.32,1213.32,0,0,1-404.07-444.4c-89.44-168.68-140.09-361.06-140.09-565.28,0-667.45,541.07-1208.52,1208.52-1208.52S3208.52,1157.19,3208.52,1824.64Z" transform="translate(-791.48 -616.12)"/><path class="cls-2" d="M3105.78,2313a1203,1203,0,0,1-65.49,127.06,1044.51,1044.51,0,0,0-198.55-23c-273.88-5.19-484.63,99.49-592.64,164.62a1496.07,1496.07,0,0,1-913.46,252.6,1213.31,1213.31,0,0,1-202.35-167.47,900.84,900.84,0,0,0,146.36,16.06c47.28,1.29,215.09,2.07,444.23-98.31,170.87-74.85,160.4-111.58,342.28-207.55,96.86-51.11,263.31-138.94,466.07-163.86C2629.88,2201.19,2842.5,2190.69,3105.78,2313Z" transform="translate(-791.48 -616.12)"/><path class="cls-2" d="M1884.1,2366.13c-90.07,81.5-293.79,239.68-560.75,233-101.29-2.52-212.91-28.8-300.7-63.53a1207.55,1207.55,0,0,1-91.08-145.71c86.51,39.87,212.88,84.48,369.93,96.37C1577.82,2507.2,1789.69,2414.76,1884.1,2366.13Z" transform="translate(-791.48 -616.12)"/><path class="cls-2" d="M2994.72,2511.16q-30.67,44.37-65.14,85.79a877.14,877.14,0,0,0-539.35,104.17,732.63,732.63,0,0,1,604.49-190Z" transform="translate(-791.48 -616.12)"/><path class="cls-2" d="M1821,1167.76l9.38-40q102.16-8.48,241-41.46-40.22,104.14-71.06,236.45l-61.7,261.77q-66.4,283.4-149.59,427.86,80.58,16.32,142.42,16.3,163.92,0,285.72-69t193.47-201.22q71.68-132.29,71.68-291.77,0-209.2-121.92-336.32t-318.84-127.13q-166,0-313.21,78.86t-233,208.86q-85.82,130-85.81,253,0,120.16,104.86,176.47,30,16.82,38.87,28.9t8.89,29.82q0,22.36-17.36,39.61T1504.85,1836q-49.75,0-96.68-65.66-63.87-91.94-63.86-188.58,0-161.35,96.16-311.91t267.8-239.7q171.65-89.12,381.77-89.14,258.91,0,412.28,138.24t153.37,347.23q0,194-106.92,356.62t-258.36,231.48Q2139,2083.52,1988,2083.5q-48.75,0-168.8-9.05-101.28-7.23-192.24-7.25-42.23,0-128.48,3l21.54-45.93q86.26-4.67,107.36-15t36.11-34.66q27.16-43.06,74.07-187.35l64.73-245,75-306q5.63-22.5,5.63-38.48,0-15-9.38-23.92t-26.28-8.93Q1840.73,1164.94,1821,1167.76Z" transform="translate(-791.48 -616.12)"/></svg>